<svg width="59" height="48" viewBox="0 0 59 48" fill="none" xmlns="http://www.w3.org/2000/svg">
<path d="M5.16699 24C5.16699 10.7452 15.9122 0 29.167 0C42.4218 0 53.167 10.7452 53.167 24C53.167 37.2548 42.4218 48 29.167 48C15.9122 48 5.16699 37.2548 5.16699 24Z" fill="#E2FBE8"/>
<path d="M37.917 31.5V19.625C37.917 17.8694 37.917 16.9916 37.4957 16.3611C37.3133 16.0881 37.0789 15.8537 36.8059 15.6713C36.4796 15.4533 36.0872 15.3481 35.5412 15.2973C34.6697 15.2163 34.2339 15.1758 33.7573 15.3871C33.2807 15.5984 32.9678 16.0156 32.342 16.85L31.667 17.75H26.667L25.992 16.85C25.3662 16.0156 25.0533 15.5984 24.5767 15.3871C24.1001 15.1758 23.6643 15.2163 22.7928 15.2973C22.2468 15.3481 21.8543 15.4533 21.5281 15.6713C21.2551 15.8537 21.0207 16.0881 20.8383 16.3611C20.417 16.9916 20.417 17.8694 20.417 19.625V31.5C20.417 33.857 20.417 35.0355 21.1492 35.7678C21.8815 36.5 23.06 36.5 25.417 36.5H32.917C35.274 36.5 36.4525 36.5 37.1848 35.7678C37.917 35.0355 37.917 33.857 37.917 31.5Z" fill="#B9E9C2"/>
<path d="M33.542 15.25C35.2976 15.25 36.1754 15.25 36.8059 15.6713C37.0789 15.8537 37.3133 16.0881 37.4957 16.3611C37.917 16.9916 37.917 17.8694 37.917 19.625V31.5C37.917 33.857 37.917 35.0355 37.1848 35.7678C36.4525 36.5 35.274 36.5 32.917 36.5H25.417C23.06 36.5 21.8815 36.5 21.1492 35.7678C20.417 35.0355 20.417 33.857 20.417 31.5V19.625C20.417 17.8694 20.417 16.9916 20.8383 16.3611C21.0207 16.0881 21.2551 15.8537 21.5281 15.6713C22.1586 15.25 23.0364 15.25 24.792 15.25" stroke="#3EA44B" stroke-width="1.2"/>
<path d="M25.417 15.25C25.417 13.8693 26.5363 12.75 27.917 12.75H30.417C31.7977 12.75 32.917 13.8693 32.917 15.25C32.917 16.6307 31.7977 17.75 30.417 17.75H27.917C26.5363 17.75 25.417 16.6307 25.417 15.25Z" stroke="#3EA44B" stroke-width="1.2"/>
<path d="M25.417 24L32.917 24" stroke="#3EA44B" stroke-width="1.2" stroke-linecap="round"/>
<path d="M25.417 29L30.417 29" stroke="#3EA44B" stroke-width="1.2" stroke-linecap="round"/>
</svg>
