<svg width="59" height="48" viewBox="0 0 59 48" fill="none" xmlns="http://www.w3.org/2000/svg">
<path d="M5.16699 24C5.16699 10.7452 15.9122 0 29.167 0C42.4218 0 53.167 10.7452 53.167 24C53.167 37.2548 42.4218 48 29.167 48C15.9122 48 5.16699 37.2548 5.16699 24Z" fill="#FCF9F4"/>
<path d="M26.8465 17.2862C27.8297 14.835 28.3213 13.6094 29.1667 13.6094C30.0122 13.6094 30.5038 14.835 31.487 17.2862L31.5328 17.4004C32.0883 18.7852 32.3661 19.4776 32.9321 19.8985C33.4982 20.3194 34.2413 20.3859 35.7274 20.519L35.9961 20.5431C38.4283 20.7609 39.6445 20.8698 39.9047 21.6435C40.1649 22.4173 39.2618 23.239 37.4555 24.8823L36.8526 25.4308C35.9382 26.2627 35.481 26.6786 35.2679 27.2238C35.2282 27.3255 35.1951 27.4297 35.169 27.5357C35.0289 28.104 35.1628 28.7074 35.4306 29.9143L35.5139 30.2899C36.006 32.5078 36.2521 33.6168 35.8225 34.0951C35.6619 34.2739 35.4533 34.4026 35.2215 34.4658C34.6013 34.635 33.7207 33.9175 31.9595 32.4824C30.803 31.54 30.2248 31.0688 29.5609 30.9628C29.2998 30.9211 29.0337 30.9211 28.7726 30.9628C28.1087 31.0688 27.5305 31.54 26.374 32.4824C24.6128 33.9175 23.7322 34.635 23.1119 34.4658C22.8802 34.4026 22.6715 34.2739 22.511 34.0951C22.0814 33.6168 22.3275 32.5078 22.8195 30.2899L22.9029 29.9143C23.1707 28.7074 23.3045 28.104 23.1645 27.5357C23.1383 27.4297 23.1053 27.3255 23.0655 27.2238C22.8525 26.6786 22.3953 26.2627 21.4809 25.4308L20.878 24.8823C19.0717 23.239 18.1686 22.4173 18.4288 21.6435C18.689 20.8698 19.9051 20.7609 22.3374 20.5431L22.6061 20.519C24.0922 20.3859 24.8353 20.3194 25.4014 19.8985C25.9674 19.4776 26.2452 18.7852 26.8007 17.4004L26.8465 17.2862Z" stroke="#FFB31F" stroke-width="2"/>
</svg>
