<svg width="48" height="48" viewBox="0 0 48 48" fill="none" xmlns="http://www.w3.org/2000/svg">
<path d="M0 24C0 10.7452 10.7452 0 24 0C37.2548 0 48 10.7452 48 24C48 37.2548 37.2548 48 24 48C10.7452 48 0 37.2548 0 24Z" fill="#FAE3E3"/>
<path fill-rule="evenodd" clip-rule="evenodd" d="M17.8663 12.28C18.2029 12.2972 18.4542 12.3692 18.7548 12.5328C18.985 12.658 19.2512 12.8662 19.3467 12.9954C19.443 13.1245 19.9808 14.005 20.5421 14.9521C21.1042 15.8991 21.6452 16.8329 21.7446 17.0262C21.88 17.2884 21.9262 17.5091 21.9262 17.8871C21.9262 18.2691 21.88 18.4835 21.7423 18.7481C21.6413 18.9414 21.2655 19.4087 20.9062 19.7852C20.3284 20.3917 20.254 20.5037 20.2525 20.7635C20.2517 20.9247 20.326 21.3036 20.4176 21.6049C20.51 21.9062 20.7183 22.4173 20.8803 22.7398C21.0424 23.063 21.3908 23.6172 21.6538 23.9725C21.9176 24.3279 22.4147 24.9 22.7592 25.2444C23.1037 25.5888 23.676 26.0858 24.0314 26.3495C24.3868 26.6125 24.9419 26.9608 25.2644 27.1228C25.5877 27.2848 26.0982 27.493 26.3996 27.5854C26.701 27.677 27.0799 27.7513 27.2411 27.7505C27.5011 27.749 27.613 27.6746 28.2197 27.097C28.5963 26.7378 29.0629 26.3621 29.257 26.2611C29.5216 26.1233 29.7362 26.0772 30.1182 26.0772C30.4963 26.0772 30.7171 26.1233 30.9794 26.2587C31.1735 26.3581 32.1067 26.899 33.054 27.461C34.0012 28.0221 34.882 28.5598 35.0111 28.6561C35.1403 28.7516 35.3517 29.0177 35.4801 29.2478C35.6789 29.6024 35.7142 29.7503 35.7134 30.2144C35.7126 30.7443 35.6828 30.8281 34.8139 32.755C34.0654 34.4128 33.8564 34.808 33.5628 35.1101C33.299 35.3817 33.0923 35.5101 32.7408 35.6205C32.2844 35.7629 32.2437 35.7629 31.3316 35.6267C30.815 35.55 30.0047 35.3864 29.531 35.2635C29.0574 35.1414 28.2996 34.9129 27.8479 34.7579C27.3962 34.6022 26.6203 34.2954 26.1256 34.077C25.6308 33.8578 24.873 33.4861 24.4424 33.2505C24.0118 33.0157 23.2195 32.5288 22.6809 32.1688C22.1431 31.8088 21.3148 31.2045 20.8412 30.8257C20.3675 30.4461 19.504 29.6611 18.9224 29.0795C18.3407 28.498 17.5539 27.6355 17.1734 27.162C16.793 26.6884 16.1894 25.8604 15.8308 25.3227C15.473 24.7842 14.9869 23.9921 14.7504 23.5616C14.514 23.1311 14.1625 22.4267 13.9699 21.9962C13.7773 21.5658 13.4939 20.8613 13.3397 20.4309C13.1863 20.0004 12.9522 19.2608 12.8199 18.7872C12.6876 18.3137 12.5044 17.4684 12.4128 16.9088C12.3079 16.2685 12.2648 15.7606 12.2961 15.5391C12.3243 15.3458 12.4457 15.028 12.5654 14.8347C12.686 14.6413 12.906 14.3901 13.0547 14.2774C13.2035 14.1647 14.1891 13.6849 15.2437 13.2098C16.2982 12.7355 17.2149 12.3262 17.2791 12.3011C17.3433 12.2753 17.6079 12.2659 17.8663 12.28Z" fill="#D42422"/>
</svg>
