<svg width="79" height="79" viewBox="0 0 79 79" fill="none" xmlns="http://www.w3.org/2000/svg">
<path opacity="0.21" d="M48.5312 0C65.1926 0 78.699 13.5066 78.6992 30.168V48.5312C78.6992 65.1927 65.1927 78.7002 48.5312 78.7002H30.168C13.5065 78.7001 0 65.1927 0 48.5312V30.168C0.000190083 13.5067 13.5066 5.55929e-05 30.168 0H48.5312Z" fill="#338ACD" fill-opacity="0.59"/>
<path d="M22.626 33.0109C22.626 29.5071 22.626 27.7551 23.7145 26.6666C23.7145 26.6666 23.7145 26.6666 23.7145 26.6666C24.803 25.5781 26.5549 25.5781 30.0587 25.5781H48.6407C52.1445 25.5781 53.8964 25.5781 54.9849 26.6666C54.9849 26.6666 54.9849 26.6666 54.9849 26.6666C56.0735 27.7551 56.0735 29.5071 56.0735 33.0109H22.626Z" fill="#7E869E" fill-opacity="0.25"/>
<rect x="22.626" y="25.5781" width="33.4475" height="27.8729" rx="3.71639" stroke="#338ACD" stroke-width="2.22983"/>
<path d="M30.0596 20.0039L30.0596 25.5785" stroke="#338ACD" stroke-width="2.22983" stroke-linecap="round"/>
<path d="M48.6406 20.0039L48.6406 25.5785" stroke="#338ACD" stroke-width="2.22983" stroke-linecap="round"/>
<rect x="30.0596" y="36.7266" width="7.43277" height="3.71639" rx="0.929096" fill="#338ACD"/>
<rect x="30.0586" y="44.1602" width="7.43277" height="3.71639" rx="0.929096" fill="#338ACD"/>
<rect x="41.208" y="36.7266" width="7.43277" height="3.71639" rx="0.929096" fill="#338ACD"/>
<rect x="41.208" y="44.1602" width="7.43277" height="3.71639" rx="0.929096" fill="#338ACD"/>
</svg>
